<?xml version="1.0" encoding="utf-8"?>
<!-- Generator: Adobe Illustrator 27.5.0, SVG Export Plug-In . SVG Version: 6.00 Build 0)  -->
<svg version="1.1" xmlns="http://www.w3.org/2000/svg" xmlns:xlink="http://www.w3.org/1999/xlink" x="0px" y="0px"
	 viewBox="0 0 500 500" style="enable-background:new 0 0 500 500;" xml:space="preserve">
<g id="BACKGROUND">
	<rect style="fill:#FFFFFF;" width="500" height="500"/>
</g>
<g id="OBJECTS">
	<g>
		<path style="fill:#DBE0FC;" d="M368.08,257.553c-3.276,1.395-6.492,2.885-9.618,4.52c-28.901,15.114-58.213,32.741-82.14,55.098
			c-13.402,12.523-24.501,27.376-38.212,39.559c-30.129,26.773-77.524,29.247-108.224,1.202
			c-33.188-30.318-39.101-76.877-20.995-116.423c8.129-17.754,20.274-33.398,28.926-50.903
			c13.341-26.992,19.009-59.237,41.343-79.429c13.156-11.894,30.51-17.94,47.663-22.448c42.779-11.244,90.559-14.233,134.079-5.012
			c31.248,6.621,61.817,22.614,79.224,49.396c17.407,26.782,18.397,65.322-2.977,89.058
			C419.115,242.199,392.021,247.356,368.08,257.553z"/>
		<g>
			
				<rect x="54.606" y="53.165" style="fill:#A8DCA4;stroke:#000000;stroke-width:0.5;stroke-miterlimit:10;" width="350.659" height="243.86"/>
			
				<rect x="60.377" y="43.731" style="fill:#FFFFFF;stroke:#000000;stroke-width:0.5;stroke-miterlimit:10;" width="339.116" height="262.727"/>
			<g>
				<g>
					<path style="fill:#FFFFFF;stroke:#222221;stroke-width:0.5;stroke-miterlimit:10;" d="M246.812,232.043
						c-2.529,9.761-8.017,18.825-10.827,28.657c-3.022,10.573-6.492,21.693-5.604,32.826c0.938,11.766,8.675,17.327,19.778,19.442
						c10.932,2.082,22.034,3.269,33.158,3.544c9.419,0.233,20.071-0.755,26.046-8.04c1.513-1.845,2.642-4.067,2.883-6.441
						c0.446-4.405-2.243-8.634-5.741-11.349c-6.402-4.97-10.418-2.88-17.439-2.632c-8.743,0.309-17.607-1.349-26.201-2.737
						c-1.781-0.288-3.8-0.734-4.684-2.307c-0.48-0.854-0.515-1.88-0.516-2.859c-0.005-7.885-1.045-16.081-0.116-23.908
						c0.478-4.028,0.955-8.055,1.433-12.083c0.653-5.508,1.294-11.187-0.223-16.522c-1.517-5.335-5.755-10.295-11.268-10.896
						c-1.764-0.192-3.664,0.11-5.028,1.243c-2.136,1.775-2.342,5.12-1.23,7.665c1.044,2.39,3.109,5.265,5.685,5.993
						C246.882,231.773,246.847,231.908,246.812,232.043z"/>
					
						<line style="fill:none;stroke:#222221;stroke-width:0.5;stroke-miterlimit:10;" x1="423.357" y1="436.063" x2="231.735" y2="436.063"/>
					
						<line style="fill:none;stroke:#222221;stroke-width:0.5;stroke-miterlimit:10;" x1="209.031" y1="429.948" x2="199.371" y2="429.948"/>
					<path style="fill:none;stroke:#222221;stroke-width:0.5;stroke-miterlimit:10;" d="M433.425,429.948
						c-71.632,0.052-143.632,0.052-215.174,0"/>
					
						<line style="fill:none;stroke:#222221;stroke-width:0.5;stroke-miterlimit:10;" x1="437.903" y1="436.063" x2="430.314" y2="436.063"/>
					<path style="fill:#FFFFFF;stroke:#000000;stroke-width:0.5;stroke-miterlimit:10;" d="M309.257,296.39
						c-0.09-0.488-0.168-0.979-0.24-1.467c-0.711-4.879-1.376-10.981,3.934-12.522c3.502-1.017,9.637-0.565,11.973-3.822
						c0.75-1.045,0.962-2.37,1.154-3.642c0.274-1.816,0.549-3.633,0.823-5.449c-10.181,1.748-14.428-7.366-15.713-15.892
						c-1.311-8.698-1.038-19.554,6.624-25.381c4.884-3.714,11.724-4.601,17.462-2.432c5.739,2.17,10.237,7.267,11.861,13.183
						c1.201,4.376-0.224,5.971-0.483,10.487c-0.294,5.114,0.163,13.953-0.122,19.068c-0.192,3.439,0.102,7.448,1.966,10.451
						c0.848,1.365,1.899,2.529,3.346,3.274c1.048,0.54,3.788,0.249,4.441,0.966c3.728,4.097,7.213,8.437,11.265,12.2
						c-9.552,4.005-19.542,6.874-29.75,8.625c-7.162,1.228-21.622,5.466-26.564-2.152
						C310.165,300.242,309.615,298.332,309.257,296.39z"/>
					<path style="fill:#D89CC7;stroke:#000000;stroke-width:0.5;stroke-miterlimit:10;" d="M393.885,320.495
						c-1.022-12.622-6.672-25.538-18.167-31.85c-4.234-2.325-8.874-3.711-13.552-4.823c-2.406-0.572-4.828-1.072-7.239-1.618
						c-2.704-0.613-3.247,0.026-5.081,2.06c-3.796,4.213-9.801,6.083-15.443,5.499c-3.576-0.37-7.004-1.656-10.072-3.505
						c-3.327-2.005-4.488-4.473-8.698-4.236c-12.751,0.719-25.478,1.872-38.15,3.455c0.93,11.045,1.679,26.714,3.983,37.556
						c6.707-0.672,21.549-2.15,21.534-0.121c-0.025,3.114,0.043,6.229,0.149,9.341c0.207,6.074,0.587,12.142,0.833,18.214
						c0.261,6.449,0.738,12.887,1.314,19.315c0.655,7.315,1.779,14.502,3.41,21.617c16.58,5.521,35.497,4.176,53.276,2.572
						c5.069-0.457,10.328-0.973,14.712-3.559c12.334-7.276,12.859-28.778,14.62-41.293
						C392.676,339.44,394.686,330.381,393.885,320.495z"/>
					<path d="M266.709,446.189c0.216-0.317,0.442-0.627,0.677-0.928c4.294-5.506,11.712-9.097,17.773-12.332
						c6.686-3.57,14.184-6.507,21.896-6.062c6.954,0.401,16.614,5.12,18.054,12.482c0.162,0.831,0.232,1.72-0.1,2.499
						c-0.828,1.935-3.442,2.108-5.546,2.127c-8.978,0.08-17.618,2.842-25.995,5.824c-4.316,1.537-8.606,3.154-12.97,4.553
						c-3.901,1.251-13.378,6.734-16.109,1.043C262.895,452.283,264.978,448.732,266.709,446.189z"/>
					<path style="fill:#5F76E8;stroke:#000000;stroke-width:0.5;stroke-miterlimit:10;" d="M227.773,372.212
						c3.629-4.018,8.796-6.619,14.096-7.612c7.436-1.392,15.118-0.043,22.412,1.966c15.455,4.256,29.947,11.43,45.483,15.422
						c6.889,1.77,11.381,1.113,18.114,0.57c8.536-0.689,17.3,0.152,25.89-0.356c8.029-0.475,16.716-1.097,24.22,1.115
						c0.991-0.651,1.979-1.304,2.963-1.949c8.395-5.508,16.757-10.992,27.284-8.986c8.277,1.577,16.258,5.773,21.385,12.587
						c5.447,7.238,3.811,16.689-1.069,23.905c-4.041,5.974-10.012,10.372-16.197,14.082c-21.335,12.798-44.639,20.642-69.816,18.894
						c-3.37-0.234-7.343-0.272-9.77,2.435c-0.912,1.018-1.442,6.594-3.468,6.354c-2.493-0.296-7.295-0.994-9.65-1.845
						c-12.722-4.596-25.444-9.191-38.166-13.787c-11.178-4.038-22.437-8.114-32.62-14.241c-8.807-5.299-16.784-12.466-21.461-21.751
						c-3.372-6.694-6.139-15.515-2.619-22.469C225.588,374.957,226.6,373.511,227.773,372.212z"/>
					<path style="fill:none;stroke:#000000;stroke-width:0.5;stroke-miterlimit:10;" d="M385.677,391.452
						c-7.152,3.575-14.64,5.86-21.491,10.095c-6.849,4.234-13.327,9.165-20.764,12.365c-4.824,2.076-11.826,2.885-16.453,5.184"/>
					<path d="M332.955,443.269c0.669-1.547,1.338-3.093,2.008-4.64c1.328-3.069,2.656-6.139,3.984-9.208
						c2.991,1.499,5.869,2.7,9.335,2.415c1.841-0.152,3.652-0.676,5.499-0.645c3.673,0.062,5.26,2.922,6.788,5.818
						c2.701,5.121,7.563,8.852,11.507,12.962c4.943,5.15,7.806,9.994,7.012,17.36c-0.28,2.597-1.33,5.577-3.844,6.286
						c-2.318,0.654-4.605-0.97-6.47-2.496c-5.055-4.137-10.11-8.273-15.165-12.41c-2.306-1.887-4.649-4.4-7.273-5.817
						c-2.155-1.164-4.717-1.893-6.763-3.257c-1.303-0.549-2.638-1.025-3.995-1.423c-0.877-0.258-3.15-0.347-3.782-0.962
						c-0.782-0.762,0.778-3.103,1.133-3.922C332.937,443.31,332.946,443.29,332.955,443.269z"/>
					<path style="fill:#FFFFFF;stroke:#000000;stroke-width:0.5;stroke-miterlimit:10;" d="M319.854,394.814
						c-0.922-0.466-1.623-1.293-2.171-2.863c-0.917-2.626-0.379-5.739,1.098-8.054c1.906-2.988,5.416-5.294,8.873-6.02
						c3.568-0.749,7.03-2.024,10.664-2.759c2.615-0.529,5.186-1.249,7.754-1.969c5.429-1.521,10.859-3.042,16.289-4.563
						c1.32-0.37,2.706-0.654,3.995-1.119c1.227-0.442,1.167-0.325,1.272-1.508c0.118-1.323-0.34-2.751-0.432-4.076
						c-0.134-1.93-0.262-3.86-0.386-5.791c-0.241-3.754-0.464-7.509-0.669-11.265c-0.401-7.344,0.009-14.529,1.311-21.793
						c2.185-12.185,16.771-19.182,25.015-7.549c5.745,8.107,6.922,19.099,7.325,28.744c0.443,10.592-0.174,21.221-4.244,31.167
						c-10.148,24.8-50.005,22.185-71.626,20.171C322.22,395.408,320.896,395.341,319.854,394.814z"/>
					<path d="M326.293,221.385c-8.996,0.822-16.928,8.849-19.192,17.321c0.536,0.222,1.072,0.443,1.608,0.665
						c0.74-1.702,1.679-3.318,2.792-4.803c-0.052,1.665-0.321,3.322-0.797,4.918c1.042,0.356,2.764-0.04,3.892,0.019
						c1.677,0.088,3.352,0.228,5.02,0.42c3.128,0.359,6.236,0.9,9.302,1.619c0.281,0.066,0.596,0.128,0.842-0.022
						c0.156-0.096,0.254-0.261,0.345-0.421c0.783-1.378,1.57-5.051,3.354-3.948c0.837,0.518,1.161,4.339,1.134,5.32
						c-0.068,2.445-0.728,3.81,1.674,5.387c1.902,1.249,3.598,2.743,4.352,4.905c0.801,2.296,1.164,4.811,2.589,6.853
						c0.364,0.522,0.781,1.005,1.198,1.486c0.765,0.886,1.531,1.771,2.296,2.657c0.471-0.355,0.701-0.936,0.906-1.488
						c2.423-6.516,9.109-22.283,2.131-27.851c3.26,2.601,8.689,1.738,10.982-1.746c2.292-3.484,0.937-8.812-2.742-10.777
						c3.753-1.885,4.834-7.585,2.032-10.714c-2.803-3.128-8.587-2.678-10.872,0.846c-2.8-3.604-8.277-5.05-12.243-2.79
						c-5.255,2.993-4.42,8.679-1.507,12.675C332.341,221.511,329.397,221.101,326.293,221.385z"/>
					<path style="fill:none;stroke:#000000;stroke-width:0.5;stroke-miterlimit:10;" d="M262.431,379.057
						c14.322,6.477,25.848,17.729,38.888,26.506c12.178,8.197,25.661,14.218,39.068,20.198c-0.7,1.537-0.985,3.053-1.685,4.59"/>
					<path style="fill:none;stroke:#222221;stroke-width:0.5;stroke-miterlimit:10;" d="M323.618,256.803
						c-0.856,2.793-4.27,4.49-7.013,3.485"/>
					<g>
						<path style="fill:#FFFFFF;stroke:#000000;stroke-width:0.5;stroke-miterlimit:10;" d="M338.069,255.991
							c5.279,1.321,8.566-4.243,6.962-7.871c-2.233-5.05-9.315-4.212-10.611,1.096"/>
						<path style="fill:none;stroke:#222221;stroke-width:0.5;stroke-miterlimit:10;" d="M340.771,247.693
							c-0.993-0.273-2.139-0.109-2.97,0.426c-0.831,0.535-1.324,1.425-1.277,2.307"/>
					</g>
					<path style="fill:#D89CC7;stroke:#000000;stroke-width:0.5;stroke-miterlimit:10;" d="M363.014,312.252
						c1.434,5.714,1.743,18.932,1.798,28.983c3.743-0.328,7.466-0.855,11.154-1.584c8.024-1.585,15.814-4.056,23.377-7.124
						c-2.236-14.328-6.381-28.053-16.607-38.381"/>
					<g>
						
							<rect x="103.688" y="179.298" transform="matrix(0.9962 0.0874 -0.0874 0.9962 20.5054 -14.3655)" style="fill:#FFFFFF;stroke:#000000;stroke-width:0.5;stroke-miterlimit:10;" width="141.057" height="95.126"/>
						<g>
							
								<rect x="112.511" y="185.389" transform="matrix(0.9962 0.0874 -0.0874 0.9962 20.5054 -14.3655)" style="fill:#FFFFFF;stroke:#000000;stroke-width:0.5;stroke-miterlimit:10;" width="123.411" height="82.944"/>
							<path style="fill:#D89CC7;stroke:#000000;stroke-width:0.5;stroke-miterlimit:10;" d="M203.791,209.156
								c-0.461,5.246-5.087,9.125-10.333,8.665c-5.246-0.461-9.126-5.087-8.665-10.333c0.461-5.246,5.087-9.126,10.333-8.665
								C200.372,199.284,204.251,203.91,203.791,209.156z"/>
							<g>
								<defs>
									
										<rect id="SVGID_1_" x="112.511" y="185.389" transform="matrix(0.9962 0.0874 -0.0874 0.9962 20.5054 -14.3655)" width="123.411" height="82.944"/>
								</defs>
								<clipPath id="SVGID_00000098912910382287000850000018311616397791218856_">
									<use xlink:href="#SVGID_1_"  style="overflow:visible;"/>
								</clipPath>
								
									<path style="clip-path:url(#SVGID_00000098912910382287000850000018311616397791218856_);fill:#5F76E8;stroke:#000000;stroke-width:0.5;stroke-miterlimit:10;" d="
									M183.684,253.694c-5.541-4.731-9.1-10.979-13.443-16.63c-10.656-13.865-28.068-24.827-46.583-23.999
									c-15.185,0.679-29.34,9.817-34.858,22.504c-5.518,12.687-2.115,28.27,8.38,38.375c11.548,11.12,29.396,14.811,46.139,15.446
									c12.854,0.488,26.078-0.566,37.541-5.621c7.656-3.376,16.304-9.528,19.434-16.966
									C204.807,256.079,191.685,260.525,183.684,253.694z"/>
								
									<path style="clip-path:url(#SVGID_00000098912910382287000850000018311616397791218856_);fill:#A8DCA4;stroke:#000000;stroke-width:0.5;stroke-miterlimit:10;" d="
									M188.914,243.557c-10.124,5.944-20.045,12.744-30.583,17.636c-8.972,4.166-18.567,6.985-28.367,8.335
									c5.376-0.741,11.683,0.541,16.841,2.054c5.146,1.509,10.011,2.203,15.421,2.791c12.617,1.371,25.234,2.741,37.85,4.112
									c10.878,1.182,21.867,2.363,32.733,1.082c6.388-0.753,13.225-2.716,16.944-7.965c1.582-2.233,2.462-4.896,2.989-7.582
									c1.684-8.584-0.279-18.004-5.969-24.649C231.826,221.914,204.722,234.275,188.914,243.557z"/>
							</g>
							
								<rect x="112.511" y="185.389" transform="matrix(0.9962 0.0874 -0.0874 0.9962 20.5054 -14.3655)" style="fill:none;stroke:#000000;stroke-width:0.5;stroke-miterlimit:10;" width="123.411" height="82.944"/>
						</g>
					</g>
					<g>
						<path d="M364.697,402.684H283.5c-1.189,0-2.153-0.964-2.153-2.153l0,0c0-1.189,0.964-2.153,2.153-2.153h81.198
							c1.189,0,2.153,0.964,2.153,2.153l0,0C366.85,401.72,365.886,402.684,364.697,402.684z"/>
						<path d="M352.652,399.764h-71.064l-14.761-36.451c-0.481-1.187,0.393-2.483,1.673-2.483h67.169
							c0.735,0,1.397,0.446,1.673,1.128L352.652,399.764z"/>
						<path style="fill:none;stroke:#FFFFFF;stroke-width:0.5;stroke-miterlimit:10;" d="M302.259,380.32
							c0.756,1.975,3.304,3.575,5.692,3.575c2.388,0,3.712-1.601,2.956-3.575s-3.304-3.575-5.692-3.575
							C302.828,376.745,301.504,378.346,302.259,380.32z"/>
					</g>
					<path d="M326.364,269.299c0.131,1.357,0.016,2.725-0.107,4.084c0.089-0.025,0.179-0.044,0.267-0.071
						c2.792-0.865,5.105-3.143,6.275-5.822C330.83,268.578,328.61,269.186,326.364,269.299z"/>
					<path style="fill:#FFFFFF;stroke:#222221;stroke-width:0.5;stroke-miterlimit:10;" d="M247.047,231.854
						c-3.077-2.098-6.187-4.224-8.675-6.994c-0.502-0.559-0.994-1.179-1.122-1.919c-0.128-0.74,0.242-1.618,0.969-1.806
						c0.811-0.211,1.552,0.467,2.166,1.038c2.358,2.195,5.455,3.583,8.663,3.883"/>
					<path style="fill:none;stroke:#222221;stroke-width:0.5;stroke-miterlimit:10;" d="M233.684,297.263
						c0.042,1.041,0.386,2.048,0.833,2.989c1.402,2.956,3.88,5.386,6.862,6.732"/>
				</g>
				<path style="fill:none;stroke:#D47172;stroke-miterlimit:10;" d="M344.272,455.546c0.823-2,2.52-3.623,4.555-4.356
					c0.524-0.189,1.188-0.291,1.572,0.113c0.547,0.576,0.01,1.49-0.459,2.131c-0.851,1.165-1.475,2.496-1.827,3.896
					c-0.135,0.538-0.209,1.173,0.156,1.591c0.382,0.438,1.095,0.422,1.605,0.143c0.509-0.279,0.874-0.755,1.261-1.188
					c0.949-1.061,2.119-1.923,3.413-2.517c0.234-0.107,0.498-0.207,0.743-0.126c0.709,0.237,0.26,1.292-0.191,1.888
					c-0.917,1.213-1.365,2.772-1.232,4.287"/>
				<path style="fill:none;stroke:#D47172;stroke-miterlimit:10;" d="M301.229,448.927c-0.224-1.293-0.516-2.703-1.54-3.522
					c-1.024-0.819-2.982-0.423-3.077,0.886c-0.038,0.528,0.23,1.026,0.336,1.545c0.153,0.746-0.073,1.593-0.673,2.062
					c-0.6,0.469-1.574,0.441-2.059-0.146c-0.666-0.806-0.209-2.159-0.887-2.954c-0.763-0.895-2.365-0.271-2.846,0.802
					c-0.481,1.073-0.24,2.31-0.11,3.479s0.073,2.509-0.802,3.296"/>
				<circle cx="340.954" cy="253.513" r="1.64"/>
				<path d="M399.352,336.053c-0.116-0.679-0.195-1.363-0.234-2.05c-0.077-0.483-0.17-0.962-0.293-1.434
					c-0.505,0.404-1.049,0.76-1.638,1.029c-0.641,0.293-1.317,0.498-1.992,0.702c-2.009,0.609-4.017,1.217-6.026,1.826
					c-0.785,0.238-1.535,0.497-2.246,0.912c0.657-0.186,1.37-0.218,2.057-0.105c0.951,0.156,1.867,0.503,2.825,0.599
					c0.83,0.083,1.669-0.026,2.501,0.034c1.741,0.125,3.59,0.94,5.155,0.272C399.43,337.243,399.396,336.647,399.352,336.053z"/>
				<path d="M426.858,392.824c-0.755,1.515-0.369,3.398-1.081,4.934c-0.527,1.138-1.586,1.932-2.302,2.961
					c-1.116,1.605-1.292,3.881-0.236,5.526c1.056,1.645,3.377,2.421,5.127,1.55c1.402-0.698,2.202-2.2,2.762-3.663
					c1.158-3.028,2.368-7.767,1.374-10.994C431.694,390.514,428.285,389.962,426.858,392.824z"/>
				<path d="M225.244,381.551c1.272-1.021,3.15-1.259,4.598-0.509s2.346,2.482,2.04,4.084c-0.168,0.878-0.657,1.689-0.695,2.582
					c-0.047,1.143,0.645,2.166,1.01,3.25c0.541,1.604,0.305,3.512-0.822,4.775c-1.128,1.262-3.185,1.68-4.598,0.749
					c-1.498-0.987-1.871-2.982-2.153-4.754C224.119,388.549,222.165,384.022,225.244,381.551z"/>
				<path style="fill:#FFFFFF;stroke:#000000;stroke-width:0.5;stroke-miterlimit:10;" d="M394.149,373.413
					c-0.88,2.981-2.496,5.742-4.663,7.971"/>
				<path style="fill:#FFFFFF;stroke:#000000;stroke-width:0.5;stroke-miterlimit:10;" d="M387.839,382.976
					c-0.777,0.604-1.554,1.208-2.331,1.813"/>
				<path style="fill:#FFFFFF;stroke:#000000;stroke-width:0.5;stroke-miterlimit:10;" d="M388.738,379.599
					c-0.438,0.425-0.876,0.85-1.313,1.276"/>
				<path style="fill:none;stroke:#000000;stroke-width:0.5;stroke-miterlimit:10;" d="M395.601,331.297
					c-2.072,0.777-4.144,1.554-6.216,2.331"/>
				<path style="fill:none;stroke:#000000;stroke-width:0.5;stroke-miterlimit:10;" d="M390.133,309.603
					c1.111,2.519,2.01,5.131,2.686,7.8"/>
				<path style="fill:none;stroke:#000000;stroke-width:0.5;stroke-miterlimit:10;" d="M393.25,318.956
					c0.181,0.804,0.362,1.608,0.543,2.412"/>
				<path style="fill:none;stroke:#000000;stroke-width:0.5;stroke-miterlimit:10;" d="M394.301,323.528
					c0.115,0.547,0.231,1.093,0.346,1.64"/>
				<path style="fill:none;stroke:#000000;stroke-width:0.5;stroke-miterlimit:10;" d="M344.578,265.944
					c0.015,2.451,0.161,4.902,0.436,7.338"/>
				<path style="fill:none;stroke:#000000;stroke-width:0.5;stroke-miterlimit:10;" d="M345.257,275.184
					c0.146,0.96,0.354,1.912,0.622,2.846"/>
			</g>
			<g>
				<g>
					<g>
						<path style="fill:#A8DCA4;" d="M226.475,68.306h-68.346c-1.869,0-3.384-1.515-3.384-3.384v-0.22
							c0-1.869,1.515-3.384,3.384-3.384h68.346c1.869,0,3.384,1.515,3.384,3.384v0.22C229.859,66.791,228.344,68.306,226.475,68.306
							z"/>
						<path style="fill:#A8DCA4;" d="M271.622,68.306h-30.627c-1.869,0-3.384-1.515-3.384-3.384v-0.22
							c0-1.869,1.515-3.384,3.384-3.384h30.627c1.869,0,3.384,1.515,3.384,3.384v0.22C275.007,66.791,273.491,68.306,271.622,68.306
							z"/>
						<path style="fill:#A8DCA4;" d="M344.447,68.306h-59.104c-1.869,0-3.384-1.515-3.384-3.384v-0.22
							c0-1.869,1.515-3.384,3.384-3.384h59.104c1.869,0,3.384,1.515,3.384,3.384v0.22C347.831,66.791,346.316,68.306,344.447,68.306
							z"/>
						<path style="fill:#A8DCA4;" d="M348.01,83.319H158.128c-1.869,0-3.384-1.515-3.384-3.384v-0.22
							c0-1.869,1.515-3.384,3.384-3.384H348.01c1.869,0,3.384,1.515,3.384,3.384v0.22C351.394,81.804,349.879,83.319,348.01,83.319z
							"/>
						<path style="fill:#A8DCA4;" d="M198.349,98.331h-40.22c-1.869,0-3.384-1.515-3.384-3.384v-0.221
							c0-1.869,1.515-3.384,3.384-3.384h40.22c1.869,0,3.384,1.515,3.384,3.384v0.221C201.733,96.816,200.218,98.331,198.349,98.331
							z"/>
						<path style="fill:#A8DCA4;" d="M344.043,98.331H214.893c-1.869,0-3.384-1.515-3.384-3.384v-0.221
							c0-1.869,1.515-3.384,3.384-3.384h129.149c1.869,0,3.384,1.515,3.384,3.384v0.221
							C347.427,96.816,345.912,98.331,344.043,98.331z"/>
						<path style="fill:#A8DCA4;" d="M281.503,113.344H158.128c-1.869,0-3.384-1.515-3.384-3.384v-0.22
							c0-1.869,1.515-3.384,3.384-3.384h123.375c1.869,0,3.384,1.515,3.384,3.384v0.22
							C284.887,111.829,283.372,113.344,281.503,113.344z"/>
						<path style="fill:#A8DCA4;" d="M345.948,113.344h-50.3c-1.869,0-3.384-1.515-3.384-3.384v-0.22
							c0-1.869,1.515-3.384,3.384-3.384h50.3c1.869,0,3.384,1.515,3.384,3.384v0.22
							C349.333,111.829,347.818,113.344,345.948,113.344z"/>
						<path style="fill:#A8DCA4;" d="M234.307,128.357h-76.179c-1.869,0-3.384-1.515-3.384-3.384v-0.22
							c0-1.869,1.515-3.384,3.384-3.384h76.179c1.869,0,3.384,1.515,3.384,3.384v0.22
							C237.691,126.842,236.176,128.357,234.307,128.357z"/>
						<path style="fill:#A8DCA4;" d="M306.024,128.357h-54.301c-1.869,0-3.384-1.515-3.384-3.384v-0.22
							c0-1.869,1.515-3.384,3.384-3.384h54.301c1.869,0,3.384,1.515,3.384,3.384v0.22
							C309.408,126.842,307.893,128.357,306.024,128.357z"/>
					</g>
					<g>
						<path style="fill:#A8DCA4;" d="M226.475,146.004h-68.346c-1.869,0-3.384-1.515-3.384-3.384v-0.221
							c0-1.869,1.515-3.384,3.384-3.384h68.346c1.869,0,3.384,1.515,3.384,3.384v0.221
							C229.859,144.489,228.344,146.004,226.475,146.004z"/>
						<path style="fill:#A8DCA4;" d="M271.622,146.004h-30.627c-1.869,0-3.384-1.515-3.384-3.384v-0.221
							c0-1.869,1.515-3.384,3.384-3.384h30.627c1.869,0,3.384,1.515,3.384,3.384v0.221
							C275.007,144.489,273.491,146.004,271.622,146.004z"/>
						<path style="fill:#A8DCA4;" d="M344.447,146.004h-59.104c-1.869,0-3.384-1.515-3.384-3.384v-0.221
							c0-1.869,1.515-3.384,3.384-3.384h59.104c1.869,0,3.384,1.515,3.384,3.384v0.221
							C347.831,144.489,346.316,146.004,344.447,146.004z"/>
						<path style="fill:#A8DCA4;" d="M258.663,161.017H158.128c-1.869,0-3.384-1.515-3.384-3.384v-0.22
							c0-1.869,1.515-3.384,3.384-3.384h100.535c1.869,0,3.384,1.515,3.384,3.384v0.22
							C262.047,159.501,260.532,161.017,258.663,161.017z"/>
					</g>
				</g>
				<g>
					<g>
						<defs>
							
								<ellipse id="SVGID_00000080928709453808666870000004711363618385826976_" transform="matrix(0.7071 -0.7071 0.7071 0.7071 -34.3565 100.6841)" cx="104.358" cy="91.814" rx="30.497" ry="30.497"/>
						</defs>
						<clipPath id="SVGID_00000012439521912163313660000004117324352866469272_">
							<use xlink:href="#SVGID_00000080928709453808666870000004711363618385826976_"  style="overflow:visible;"/>
						</clipPath>
						
							<rect x="52.659" y="42.937" style="clip-path:url(#SVGID_00000012439521912163313660000004117324352866469272_);fill:#FFFFFF;" width="108.945" height="102.007"/>
						<g style="clip-path:url(#SVGID_00000012439521912163313660000004117324352866469272_);">
							<path d="M93.949,79.161c-0.368,1.589-0.537,3.267-0.697,4.872c-0.806,8.059-2.292,16.221-6.171,23.331
								c3.009,0.444,5.228,0.939,8.234-0.03c2.553-0.824,4.88-2.442,6.314-4.737c0.854-1.367,1.381-2.911,1.822-4.461
								c0.87-3.058,1.724-6.011,0.33-9.041c-0.316-0.687-0.864-1.24-1.257-1.886c-1.704-2.801-1.306-6.05-1.199-9.109
								c0.043-1.231-0.027-2.532-0.684-3.574c-0.521-0.826-1.07-1.729-2.197-1.582c-0.663,0.086-1.245,0.483-1.735,0.938
								C95.206,75.273,94.417,77.144,93.949,79.161z"/>
							<path style="fill:#D89CC7;stroke:#000000;stroke-width:0.5;stroke-miterlimit:10;" d="M122.853,107.092
								c-5.342-2.02-11.093-2.672-16.784-3.149c-2.907-0.244-7.522-0.017-10.426,0.263c-6.525,0.628-10.962,3.263-16.03,7.421
								c-1.526,1.252-2.997,2.64-3.92,4.385s-1.229,3.912-0.389,5.698c1.074,2.28,3.647,3.388,6.042,4.174
								c15.243,5.001,32.178,4.671,47.214-0.921c1.745-0.649,3.496-1.385,4.91-2.596
								C140.521,116.323,127.871,108.989,122.853,107.092z"/>
							<path style="fill:#FFFFFF;stroke:#222221;stroke-width:0.5;stroke-miterlimit:10;" d="M111.446,109.114
								c-1.116,0.83-2.211,1.69-3.283,2.578c-1.533,1.27-2.953,2.804-5.114,2.431c-1.045-0.18-2.006-0.683-2.914-1.231
								c-3.285-1.982-6.457-4.503-7.801-8.097c1.324-0.515,4.64-0.767,4.804-2.423c0.183-1.852,0.294-3.714,0.315-5.575
								c0.009-0.821,0.055-1.048-0.531-1.543c-2.918-2.468-3.843-5.38-3.802-9.202c0.037-3.482,0.33-6.96,0.875-10.399
								c3.73-0.426,8.835-1.732,11.936,0.738c2.326,1.852,4.061,4.36,5.073,7.113c1.156,3.144,0.46,3.234-0.206,6.457
								c-0.605,2.929-0.947,6.049-0.512,9.025c0.214,1.46,0.636,2.987,1.597,4.143c1.265,1.521,3.623,1.891,5.425,2.469
								c-1.116,0.243-2.103,0.876-3.049,1.518C113.308,107.761,112.369,108.427,111.446,109.114z"/>
							<path d="M118.071,107.915c-2.794,0.021-5.59-0.116-8.368-0.41c0.934-6.883-0.573-13.539-1.344-20.313
								c-0.082-0.72-0.081-1.837-0.413-2.675c-0.133-0.333-0.356-0.578-0.529-0.88c-0.164-0.285-0.111-0.658-0.104-0.992
								c0.001-0.031-0.001-0.068-0.027-0.085c-0.023-0.015-0.053-0.008-0.079,0c-0.4,0.128-0.914,0.41-1.123,0.795
								c-0.051,0.094-0.4,0.965-0.357,0.984c-0.473-0.211-0.868-0.593-1.092-1.06c-0.185-0.385-0.255-0.814-0.304-1.238
								c-0.049-0.417,0.008-0.926-0.194-1.303c-0.42-0.783-1.406-0.685-2.292-0.781c0.442-1.043,0.558-2.222,0.326-3.331
								c-0.438,0.619-0.78,1.306-1.009,2.029c-0.122,0.384-0.221,0.795-0.495,1.09c-0.74,0.798-3.595,0.14-4.569,0.095
								c-0.478-0.022-5.46-0.482-5.489-0.396c0.889-2.69,2.021-5.484,4.296-7.172c2.544-1.888,5.948-1.992,9.116-2.021
								c3.013-0.027,6.632,0.988,9.299,2.37c4.764,2.467,6.407,8.048,7.819,12.807c0.397,1.338,0.452,2.75,0.636,4.134
								c0.343,2.583,1.136,5.082,1.931,7.563c0.972,3.031,2.082,6.249,4.606,8.189C125.215,107.626,121.798,107.887,118.071,107.915
								z"/>
							<path style="fill:#FFFFFF;stroke:#222221;stroke-width:0.5;stroke-miterlimit:10;" d="M108.061,88.807
								c0.01,0,0.02,0.001,0.031,0.001c1.984-0.034,3.541-1.693,3.718-3.504c0.182-1.853-1.519-3.299-3.37-3.267
								c-0.983,0.017-1.692,0.463-2.18,1.129"/>
							<path d="M97.545,97.416c0.002-0.456-0.042-0.926-0.208-1.354c-0.078-0.326-0.216-0.626-0.445-0.855l-0.002-0.033
								c1.907,1.403,5.068,0.969,5.654,0.23c-1.181,1.969-3.046,2.759-5.071,3.091C97.51,98.136,97.544,97.777,97.545,97.416z"/>
							<path style="fill:none;stroke:#222221;stroke-width:0.5;stroke-miterlimit:10;" d="M109.041,83.793
								c-0.687,0.04-1.34,0.449-1.678,1.048c-0.337,0.599-0.347,1.37-0.025,1.978"/>
							<path style="fill:#D47172;stroke:#000000;stroke-width:0.5;stroke-miterlimit:10;" d="M100.047,89.405
								c-0.313,1.164-1.577,1.846-2.782,1.827c-1.61-0.025-2.351-0.809-2.769-2.061L100.047,89.405z"/>
						</g>
					</g>
					
						<ellipse transform="matrix(0.7071 -0.7071 0.7071 0.7071 -34.3565 100.6841)" style="fill:none;stroke:#222221;stroke-width:0.5;stroke-miterlimit:10;" cx="104.358" cy="91.814" rx="30.497" ry="30.497"/>
				</g>
			</g>
			<g>
				<g>
					<path style="fill:#A8DCA4;stroke:#000000;stroke-width:0.5;stroke-miterlimit:10;" d="M140.467,305.837
						c2.481-3.407,5.317-6.646,7.84-9.368c5.428-5.858,11.759-10.607,18.387-14.598c3.565,13.148,0.106,27.688-6.477,39.291
						c-4.204,7.412-9.6,13.856-15.335,19.808c-3.21,3.332-6.559,6.378-9.889,9.625c-0.285,0.278-0.676,0.571-1.008,0.369
						c-0.256-0.156-0.323-0.526-0.363-0.849c-1.515-12.4-2.895-25.736,2.304-36.82C137.092,310.808,138.688,308.279,140.467,305.837
						z"/>
					<path style="fill:#A8DCA4;stroke:#000000;stroke-width:0.5;stroke-miterlimit:10;" d="M92.398,320.627
						c0.064,8.406,0.249,16.934,2.413,24.985c2.164,8.051,6.571,15.693,13.228,19.606c3.608,2.121,7.667,3.049,11.503,4.594
						c3.853,1.552,7.263,3.879,9.59,7.697c1.212-11.452-3.908-23.782-9.399-33.131C113.285,333.404,103.601,324.724,92.398,320.627z
						"/>
					<path style="fill:#A8DCA4;stroke:#000000;stroke-width:0.5;stroke-miterlimit:10;" d="M154.822,345.621
						c9.521-7.091,20.913-10.199,32.077-12.992c-3.266,10.183-6.686,20.658-13.216,28.643c-6.096,7.454-14.56,12.186-23.383,14.363
						c-1.667,0.411-12.085,4.885-12.744,4.477c-1.625-1.006,0.928-7.5,1.294-9.049C141.369,360.402,146.51,351.811,154.822,345.621z
						"/>
					<path style="fill:#1C0C03;" d="M134.064,398.283l-0.498-0.043c0.607-6.904,1.296-14.729,5.056-20.95
						c2.287-3.783,5.514-6.645,8.634-9.411l17.791-15.776l0.332,0.375l-17.791,15.776c-3.093,2.741-6.29,5.576-8.538,9.294
						C135.349,383.669,134.667,391.433,134.064,398.283z"/>
					<path style="fill:#1C0C03;" d="M130.852,410.826c-0.904-4.897-0.707-9.98-0.516-14.897c0.131-3.391,0.268-6.896,0.042-10.313
						c-0.992-15.038-8.752-28.223-15.946-39.4l0.42-0.271c7.229,11.23,15.024,24.481,16.024,39.639
						c0.229,3.443,0.092,6.962-0.041,10.365c-0.189,4.888-0.386,9.943,0.509,14.787L130.852,410.826z"/>
					<path style="fill:#1C0C03;" d="M132.391,404.741l-0.5-0.008l0.402-27.353c0.107-7.228,0.218-14.701,1.335-21.953
						c2.141-13.899,7.852-26.665,13.375-39.01l0.457,0.205c-5.51,12.314-11.207,25.048-13.338,38.881
						c-1.112,7.218-1.223,14.674-1.329,21.885L132.391,404.741z"/>
					<g>
						<g>
							<path style="fill:#D47172;stroke:#000000;stroke-width:0.5;stroke-miterlimit:10;" d="M115.061,436.134
								c0,0,36.375,0.216,36.391,0l2.311-38.03h-41.588C112.175,398.104,115.054,436.063,115.061,436.134z"/>
							<path style="fill:#1C0C03;" d="M114.85,409.846c3.135-1.52,5.686-3.079,9.682-2.634c1.735,0.193,3.705,0.639,5.062-0.459
								c0.524-0.424,0.868-1.023,1.242-1.583c1.631-2.439,4.093-4.291,6.85-5.273c1.711-0.609,5.441-1.793,7.196-1.793
								c0,0-32.707,0-32.707,0l1.117,12.46C113.832,410.332,114.348,410.09,114.85,409.846z"/>
							<path style="fill:#D47172;stroke:#000000;stroke-width:0.5;stroke-miterlimit:10;" d="M155.467,391.199l-43.473,0.059
								c-0.373,0-0.732,0.04-1.082,0.102v10.053c0.353,0.063,0.712,0.104,1.082,0.104l42.567-0.088L155.467,391.199z"/>
						</g>
					</g>
				</g>
				
					<line style="fill:none;stroke:#222221;stroke-width:0.5;stroke-miterlimit:10;" x1="94.474" y1="436.134" x2="160.1" y2="436.134"/>
				
					<line style="fill:none;stroke:#222221;stroke-width:0.5;stroke-miterlimit:10;" x1="163.021" y1="436.134" x2="173.035" y2="436.134"/>
				<path style="fill:none;stroke:#222221;stroke-width:0.5;stroke-miterlimit:10;" d="M180.977,344.969
					c-1.02,2.924-2.232,5.781-3.626,8.547"/>
				<path style="fill:none;stroke:#222221;stroke-width:0.5;stroke-miterlimit:10;" d="M176.186,355.07
					c-0.624,0.996-1.317,1.949-2.072,2.849"/>
				<path style="fill:none;stroke:#222221;stroke-width:0.5;stroke-miterlimit:10;" d="M164.556,298.614
					c-0.917,4.729-2.413,9.346-4.446,13.713"/>
				<path style="fill:none;stroke:#222221;stroke-width:0.5;stroke-miterlimit:10;" d="M159.34,314.66
					c-0.896,1.603-1.793,3.206-2.689,4.808"/>
				<path style="fill:none;stroke:#222221;stroke-width:0.5;stroke-miterlimit:10;" d="M162.214,312.473
					c-0.562,1.079-1.124,2.157-1.686,3.236"/>
				<path style="fill:none;stroke:#222221;stroke-width:0.5;stroke-miterlimit:10;" d="M101.035,354.9
					c1.827,3.943,5.445,7.012,9.633,8.172"/>
				<path style="fill:none;stroke:#222221;stroke-width:0.5;stroke-miterlimit:10;" d="M151.064,406.868
					c-0.159,4.667-0.425,9.329-0.796,13.984"/>
				<path style="fill:none;stroke:#222221;stroke-width:0.5;stroke-miterlimit:10;" d="M150.38,422.534
					c-0.074,0.994-0.147,1.988-0.221,2.981"/>
			</g>
			<path d="M307.348,324.402c0.216,0.956-0.011,1.977-0.488,2.833c-0.462,0.828-1.151,1.53-1.495,2.413
				c-0.398,1.022-0.288,2.161-0.4,3.253c-0.181,1.775-0.952,3.428-1.711,5.043c0.639-0.958-0.193-4.906-0.24-6.118
				c-0.082-2.093-0.185-4.186-0.246-6.28c-0.037-1.255-0.221-2.597,1.119-3.181C305.416,321.699,307.013,322.92,307.348,324.402z"/>
			<g>
				<g>
					<path style="fill:#D47172;stroke:#000000;stroke-width:0.5;stroke-miterlimit:10;" d="M394.323,234.345
						c-1.949,0.588-3.38,3.339-3.38,3.339s-1.444-2.727-3.395-3.283c-5.649-1.608-8.174,3.486-6.011,8.189
						c2.087,4.536,9.438,9.993,9.438,9.993s7.327-5.579,9.394-10.15C402.511,237.695,399.965,232.643,394.323,234.345z"/>
					<path style="fill:#D47172;stroke:#000000;stroke-width:0.5;stroke-miterlimit:10;" d="M404.648,208.658
						c-1.949,0.588-3.38,3.339-3.38,3.339s-1.444-2.727-3.395-3.283c-5.649-1.609-8.174,3.486-6.011,8.188
						c2.086,4.536,9.438,9.993,9.438,9.993s7.327-5.579,9.394-10.15C412.837,212.008,410.29,206.956,404.648,208.658z"/>
					<path style="fill:#D47172;stroke:#000000;stroke-width:0.5;stroke-miterlimit:10;" d="M414.974,182.971
						c-1.949,0.588-3.38,3.339-3.38,3.339s-1.444-2.727-3.395-3.283c-5.649-1.608-8.174,3.486-6.011,8.189
						c2.087,4.536,9.438,9.993,9.438,9.993s7.327-5.579,9.394-10.15C423.163,186.322,420.616,181.269,414.974,182.971z"/>
					<path style="fill:#D47172;stroke:#000000;stroke-width:0.5;stroke-miterlimit:10;" d="M425.3,157.285
						c-1.949,0.588-3.38,3.339-3.38,3.339s-1.444-2.727-3.395-3.283c-5.649-1.608-8.174,3.487-6.011,8.189
						c2.087,4.536,9.438,9.993,9.438,9.993s7.327-5.579,9.394-10.15C433.488,160.635,430.942,155.582,425.3,157.285z"/>
				</g>
				<path style="fill:none;stroke:#222221;stroke-width:0.5;stroke-miterlimit:10;" d="M399.245,237.932
					c0.18,1.017-0.059,2.067-0.435,3.029c-0.903,2.309-2.562,4.227-4.19,6.096"/>
				<path style="fill:none;stroke:#222221;stroke-width:0.5;stroke-miterlimit:10;" d="M393.788,247.973
					c-0.36,0.497-0.749,0.973-1.165,1.424"/>
				<path style="fill:none;stroke:#222221;stroke-width:0.5;stroke-miterlimit:10;" d="M394.56,244.991
					c-0.365,0.434-0.729,0.867-1.094,1.301"/>
				<path style="fill:none;stroke:#222221;stroke-width:0.5;stroke-miterlimit:10;" d="M402.638,223.986
					c2.664-1.753,4.824-4.266,6.156-7.164"/>
				<path style="fill:none;stroke:#222221;stroke-width:0.5;stroke-miterlimit:10;" d="M419.959,188.601
					c-0.144,0.898-0.486,1.763-0.994,2.517"/>
				<path style="fill:none;stroke:#222221;stroke-width:0.5;stroke-miterlimit:10;" d="M418.388,192.505
					c-1.192,1.558-2.483,3.04-3.862,4.434"/>
				<path style="fill:none;stroke:#222221;stroke-width:0.5;stroke-miterlimit:10;" d="M431.017,162.052
					c-0.345,1.12-0.801,2.207-1.359,3.238"/>
				<path style="fill:none;stroke:#222221;stroke-width:0.5;stroke-miterlimit:10;" d="M428.428,166.585
					c-0.237,0.345-0.475,0.691-0.712,1.036"/>
				<path style="fill:none;stroke:#222221;stroke-width:0.5;stroke-miterlimit:10;" d="M426.435,169.187
					c-0.921,1.062-1.878,2.093-2.869,3.089"/>
			</g>
		</g>
		<path style="fill:#D89CC7;" d="M426.032,316.669h0.39c0,4.552,3.69,8.242,8.242,8.242v0.39c-4.552,0-8.242,3.69-8.242,8.242h-0.39
			c0-4.552-3.69-8.242-8.242-8.242v-0.39C422.342,324.911,426.032,321.221,426.032,316.669z"/>
		<path style="fill:#5F76E8;" d="M441.767,337.054L441.767,337.054c0,3.7,2.999,6.699,6.699,6.699v0c-3.7,0-6.699,2.999-6.699,6.699
			h0c0-3.7-2.999-6.699-6.699-6.699v0C438.768,343.753,441.767,340.754,441.767,337.054z"/>
		<path style="fill:#5F76E8;" d="M438.659,74.954L438.659,74.954c0,3.7,2.999,6.699,6.699,6.699v0c-3.7,0-6.699,2.999-6.699,6.699h0
			c0-3.7-2.999-6.699-6.699-6.699v0C435.66,81.653,438.659,78.654,438.659,74.954z"/>
		<path style="fill:#5F76E8;" d="M67.431,384.841h0.293c0,4.323,3.504,7.827,7.827,7.827v0.293c-4.323,0-7.827,3.504-7.827,7.827
			h-0.293c0-4.323-3.504-7.827-7.827-7.827v-0.293C63.927,392.668,67.431,389.164,67.431,384.841z"/>
		<g>
			<path style="fill:#D89CC7;" d="M383.8,126.241h1.559c0,4.552,3.69,8.241,8.241,8.241v1.559c-4.552,0-8.241,3.69-8.241,8.242
				H383.8c0-4.552-3.69-8.242-8.242-8.242v-1.559C380.11,134.482,383.8,130.792,383.8,126.241z"/>
			<path style="fill:#5F76E8;" d="M369.433,103.187h0.39c0,4.552,3.69,8.242,8.241,8.242v0.39c-4.552,0-8.242,3.69-8.242,8.242
				h-0.39c0-4.552-3.69-8.242-8.242-8.242v-0.39C365.743,111.429,369.433,107.739,369.433,103.187z"/>
			<path style="fill:#D89CC7;" d="M356.818,154.485L356.818,154.485c0,4.404,3.57,7.974,7.974,7.974l0,0
				c-4.404,0-7.974,3.57-7.974,7.974l0,0c0-4.404-3.57-7.974-7.974-7.974l0,0C353.248,162.458,356.818,158.889,356.818,154.485z"/>
		</g>
	</g>
</g>
</svg>
